<svg width="26" height="26" viewBox="0 0 26 26" fill="none" xmlns="http://www.w3.org/2000/svg">
<path d="M22.8224 0.500061H3.17958C1.70078 0.500061 0.501007 1.69984 0.501007 3.17863V22.8215C0.501007 24.3003 1.70078 25.5001 3.17958 25.5001H22.8224C24.3012 25.5001 25.501 24.3003 25.501 22.8215V3.17863C25.501 1.69984 24.3012 0.500061 22.8224 0.500061ZM15.9753 21.9119C15.5066 21.9956 15.3336 21.7054 15.3336 21.4655C15.3336 21.1641 15.3448 19.6239 15.3448 18.3795C15.3448 17.509 15.0546 16.9565 14.7142 16.6664C16.7789 16.4376 18.9552 16.153 18.9552 12.5871C18.9552 11.5715 18.5925 11.0637 18.001 10.4108C18.0959 10.1708 18.414 9.1831 17.9061 7.89962C17.1305 7.65966 15.3559 8.8985 15.3559 8.8985C14.6193 8.69203 13.8213 8.586 13.0345 8.586C12.2477 8.586 11.4497 8.69203 10.7131 8.8985C10.7131 8.8985 8.93851 7.65966 8.16284 7.89962C7.65503 9.17752 7.96753 10.1652 8.06797 10.4108C7.47645 11.0637 7.19744 11.5715 7.19744 12.5871C7.19744 16.1362 9.27891 16.4376 11.3436 16.6664C11.0758 16.9063 10.8358 17.3193 10.7521 17.9108C10.222 18.1507 8.86596 18.5637 8.05681 17.1351C7.549 16.2534 6.63382 16.1809 6.63382 16.1809C5.7298 16.1697 6.57244 16.7501 6.57244 16.7501C7.17511 17.0291 7.59922 18.1005 7.59922 18.1005C8.14052 19.7579 10.7298 19.1998 10.7298 19.1998C10.7298 19.9755 10.741 21.2367 10.741 21.4655C10.741 21.7054 10.5736 21.9956 10.0992 21.9119C6.41619 20.6786 3.83806 17.1742 3.83806 13.0782C3.83806 7.95542 7.75547 4.06591 12.8782 4.06591C18.001 4.06591 22.1528 7.95542 22.1528 13.0782C22.1584 17.1742 19.6584 20.6842 15.9753 21.9119ZM10.501 18.5023C10.395 18.5246 10.2945 18.48 10.2834 18.4074C10.2722 18.3237 10.3448 18.2512 10.4508 18.2289C10.5568 18.2177 10.6573 18.2623 10.6684 18.3349C10.6852 18.4074 10.6126 18.48 10.501 18.5023ZM9.97087 18.4521C9.97087 18.5246 9.88717 18.586 9.77556 18.586C9.65279 18.5972 9.56909 18.5358 9.56909 18.4521C9.56909 18.3795 9.65279 18.3181 9.7644 18.3181C9.87043 18.307 9.97087 18.3684 9.97087 18.4521ZM9.20636 18.3907C9.18404 18.4632 9.07244 18.4967 8.97757 18.4632C8.87154 18.4409 8.799 18.3572 8.82132 18.2847C8.84364 18.2121 8.95525 18.1786 9.05011 18.201C9.16172 18.2344 9.23427 18.3181 9.20636 18.3907ZM8.51998 18.0893C8.46976 18.1507 8.36373 18.1396 8.28003 18.0559C8.19632 17.9833 8.174 17.8773 8.2298 17.8271C8.28003 17.7657 8.38605 17.7768 8.46976 17.8606C8.5423 17.9331 8.5702 18.0447 8.51998 18.0893ZM8.01217 17.5815C7.96195 17.615 7.86708 17.5815 7.80569 17.4978C7.74431 17.4141 7.74431 17.3193 7.80569 17.2802C7.86708 17.23 7.96195 17.269 8.01217 17.3527C8.07355 17.4364 8.07355 17.5369 8.01217 17.5815ZM7.64945 17.0402C7.59922 17.0905 7.51552 17.0626 7.45413 17.0068C7.39275 16.9342 7.38159 16.8505 7.43181 16.8114C7.48203 16.7612 7.56574 16.7891 7.62712 16.8449C7.68851 16.9175 7.69967 17.0012 7.64945 17.0402ZM7.27556 16.6273C7.25324 16.6775 7.18069 16.6887 7.11931 16.6496C7.04677 16.6161 7.01328 16.5547 7.03561 16.5045C7.05793 16.471 7.11931 16.4543 7.19186 16.4822C7.2644 16.5213 7.29788 16.5827 7.27556 16.6273Z" fill="#918E9B"/>
</svg>
